<svg id="Capa_1" enable-background="new 0 0 511.999 511.999" viewBox="0 0 511.999 511.999" xmlns="http://www.w3.org/2000/svg"><g><path d="m501.352 345.507-75.338-72.855c4.942-1.839 9.591-4.696 13.605-8.596l11.695-11.241c2.986-2.87 3.08-7.618.21-10.604s-7.618-3.081-10.604-.21l-11.725 11.268c-9.621 9.35-25.057 9.126-34.404-.496-9.306-9.19-9.072-25.489.499-34.403l36.827-35.78c4.652-4.49 10.772-6.929 17.241-6.818 6.498.093 12.571 2.712 17.1 7.373s6.971 10.807 6.877 17.305-2.713 12.571-7.374 17.099c-2.971 2.886-3.039 7.635-.152 10.605 2.887 2.971 7.633 3.04 10.605.153 7.534-7.32 11.768-17.137 11.919-27.642.152-10.504-3.796-20.439-11.116-27.974-6.326-6.511-14.517-10.55-23.404-11.627 5.434-6.785 8.457-15.124 8.584-23.955.152-10.504-3.796-20.439-11.117-27.974-8.847-9.106-21.065-12.997-32.796-11.632 2.483-12.3-.93-25.582-10.315-35.241-8.78-9.139-21.721-13.426-34.227-11.464 1.133-11.489-2.869-22.9-10.933-31.16-14.391-15.443-40.716-15.857-55.557-.86l-10.096 9.399-29.686-10.731c-16.318-5.903-34.564-3.728-49.011 5.536-6.625-4.752-14.542-7.324-22.862-7.324-10.504 0-20.38 4.085-27.813 11.507-7.079 7.079-10.883 16.207-11.427 25.493-14.729-7.963-34.354-5.061-46.072 7.031-7.43 7.427-11.522 17.303-11.524 27.809 0 2.462.233 4.887.672 7.256-12.07-1.621-24.356 2.523-32.938 11.174-14.155 14.151-15.238 36.49-3.268 51.908-8.622.921-16.997 4.671-23.592 11.264-15.336 15.333-15.34 40.284-.008 55.622l116.594 116.627c9.301 9.311 20.99 15.82 33.809 18.823l39.247 9.179 17.03 16.438-102.907 97.874c-7.939 7.604-20.63 7.376-28.292-.51l-94.628-97.398c-3.758-3.871-5.773-8.971-5.676-14.363.097-5.395 2.297-10.423 6.172-14.137l57.333-54.5c3.002-2.854 3.122-7.601.269-10.604-2.855-3.002-7.603-3.122-10.604-.269l-57.354 54.522c-6.803 6.52-10.644 15.298-10.813 24.717-.17 9.416 3.35 18.324 9.913 25.083l94.63 97.4c6.855 7.056 16.012 10.603 25.178 10.603 8.732-.001 17.473-3.221 24.23-9.694l103.353-98.298 99.112 95.663c6.773 6.579 15.607 9.86 24.44 9.859 9.003 0 18.005-3.411 24.809-10.214l96.053-96.023c6.695-6.701 10.344-15.606 10.273-25.075-.07-9.463-3.845-18.308-10.646-24.918zm-60.831-225.917c4.528 4.661 6.971 10.807 6.877 17.305s-2.713 12.571-7.374 17.099l-55.188 53.616c-9.187 9.322-25.484 9.068-34.401-.495h-.001c-9.307-9.192-9.071-25.485.497-34.404l55.193-53.623c4.719-4.582 10.833-6.862 16.944-6.862 6.348 0 12.69 2.463 17.453 7.364zm-60.572-54.248c6.616-.004 12.852 2.628 17.461 7.376 9.348 9.622 9.125 25.056-.497 34.404l-56.436 54.83c-9.621 9.347-25.056 9.125-34.404-.497-9.342-9.617-9.124-25.038.482-34.388l55.534-51.701c.039-.036.077-.073.116-.11 2.074-2.016 3.889-4.226 5.447-6.583 3.694-2.174 7.91-3.331 12.297-3.331zm-62.22-35.635c9.177-9.408 25.56-9.228 34.521.387 7.993 7.992 10.396 24.309.303 31.369l-56.436 54.83c-4.66 4.528-10.764 6.955-17.305 6.877-6.498-.094-12.57-2.712-17.1-7.374-9.331-9.604-9.126-24.998.442-34.352zm-55.161 1.845 22.447 8.117-25.334 23.585-29.567-29.574c9.938-5.109 21.761-5.998 32.454-2.128zm228.548 353.343-96.05 96.021c-7.716 7.715-20.363 7.808-28.209.187l-128.45-123.98c-.974-.939-2.183-1.598-3.5-1.906l-41.257-9.649c-10.09-2.364-19.292-7.488-26.617-14.82l-116.597-116.631c-9.485-9.488-9.483-24.923.004-34.408 9.479-9.475 24.893-9.481 34.379-.021l36.268 36.278c1.465 1.465 3.384 2.197 5.304 2.197 1.44 0 2.879-.412 4.127-1.236.416-.275.811-.595 1.177-.961 2.929-2.929 2.93-7.677.001-10.607l-36.24-36.251c-.018-.018-.038-.035-.056-.053l-18.105-18.11c-4.595-4.596-7.125-10.706-7.124-17.205-.75-21.009 27.22-32.584 41.536-17.198l54.4 54.415c1.416 1.416 3.256 2.141 5.111 2.188.064.002.128.009.193.009.065 0 .13-.008.196-.009 1.853-.048 3.692-.772 5.107-2.186 2.929-2.929 2.93-7.677.001-10.607l-55.63-55.646c-4.595-4.596-7.125-10.706-7.124-17.205s2.533-12.608 7.128-17.203c9.058-9.437 25.354-9.435 34.408.005l55.631 55.646c.733.733 1.581 1.283 2.486 1.649.051.021.104.035.156.055.174.066.349.131.526.184.697.207 1.419.311 2.14.311 1.919 0 3.838-.732 5.303-2.196 2.929-2.928 2.93-7.677.001-10.606l-43.15-43.161c-9.488-9.488-9.488-24.925-.004-34.409 4.597-4.59 10.709-7.118 17.211-7.118 6.503 0 12.613 2.53 17.206 7.123l.002.002c.006.006.013.013.019.019l35.892 35.901c-5.75 6.892-8.949 15.472-9.08 24.571-.151 10.504 3.797 20.439 11.117 27.974 7.701 7.925 17.951 11.905 28.214 11.905 1.883 0 3.765-.136 5.633-.404-2.075 11.992 1.403 24.782 10.514 34.158 9.122 9.337 21.575 13.219 33.821 11.506-2.175 12.337 1.752 25.204 10.539 34.154 8.688 9.038 21.422 13.33 33.815 11.528-2.165 12.331 1.762 25.186 10.544 34.13 6.278 6.462 14.252 10.3 22.545 11.499l84.332 81.553c3.886 3.776 6.048 8.84 6.088 14.258.041 5.424-2.05 10.525-5.882 14.36z"/></g><g/><g/><g/><g/><g/><g/><g/><g/><g/><g/><g/><g/><g/><g/><g/></svg>