<svg xmlns="http://www.w3.org/2000/svg" version="1.1" xmlns:xlink="http://www.w3.org/1999/xlink" width="512" height="512" x="0" y="0" viewBox="0 0 512 512" style="enable-background:new 0 0 512 512" xml:space="preserve" class=""><g><path d="m509.803 113.315-56.568-56.569a7.501 7.501 0 0 0-10.606 0L173.167 326.208 69.372 222.413a7.497 7.497 0 0 0-10.606 0L2.197 278.981a7.5 7.5 0 0 0 0 10.606l165.667 165.667a7.474 7.474 0 0 0 5.303 2.197 7.474 7.474 0 0 0 5.303-2.197l331.333-331.333a7.497 7.497 0 0 0 0-10.606zM173.167 439.344 18.107 284.285l45.962-45.962 103.795 103.795a7.5 7.5 0 0 0 10.606 0L447.932 72.656l45.962 45.962-320.727 320.726z" fill="#e84e2d" opacity="1" data-original="#000000"></path></g></svg>