<svg xmlns="http://www.w3.org/2000/svg" version="1.1" xmlns:xlink="http://www.w3.org/1999/xlink" width="512" height="512" x="0" y="0" viewBox="0 0 511.934 511.934" style="enable-background:new 0 0 512 512" xml:space="preserve" class=""><g><path d="M381.822 223.199a7.503 7.503 0 0 0 8.852-5.861 139.256 139.256 0 0 0 2.793-27.788c0-76.046-61.682-137.915-137.5-137.915s-137.5 61.869-137.5 137.915 61.682 137.915 137.5 137.915c51.678 0 98.521-28.632 122.248-74.722 1.9-3.692.458-8.23-3.223-10.136-3.68-1.907-8.205-.458-10.105 3.232-21.142 41.068-62.877 66.58-108.919 66.58-67.547 0-122.5-55.119-122.5-122.87s54.953-122.87 122.5-122.87 122.5 55.119 122.5 122.87c0 8.343-.837 16.677-2.489 24.771-.831 4.071 1.786 8.046 5.843 8.879z" fill="#e84e2d" opacity="1" data-original="#000000" class=""></path><path d="M339.413 161.572a7.506 7.506 0 0 0-6.069-5.122l-48.88-7.023-21.764-44.459c-2.486-5.525-10.98-5.524-13.465 0l-21.764 44.458-48.88 7.023c-6.014.665-8.627 8.772-4.161 12.843l35.429 34.5-8.446 48.798c-1.228 5.924 5.634 10.946 10.893 7.939l43.661-23.137 43.661 23.137c5.251 3.007 12.124-2.015 10.893-7.939l-8.446-48.798 35.429-34.5a7.533 7.533 0 0 0 1.909-7.72zm-50.629 34.195a7.538 7.538 0 0 0-2.166 6.684l6.511 37.619-33.659-17.837a7.484 7.484 0 0 0-7.007 0l-33.659 17.837 6.511-37.619a7.536 7.536 0 0 0-2.166-6.684l-27.313-26.597 37.683-5.415a7.502 7.502 0 0 0 5.669-4.131l16.778-34.273 16.778 34.273a7.504 7.504 0 0 0 5.669 4.131l37.683 5.415z" fill="#e84e2d" opacity="1" data-original="#000000" class=""></path><path d="m466.437 447.153-73.305-127.352c32.098-33.988 51.815-79.852 51.815-130.252C444.946 85.031 360.171 0 255.967 0c-32.061 0-63.735 8.201-91.6 23.717-3.622 2.017-4.928 6.596-2.917 10.229 2.01 3.631 6.576 4.941 10.197 2.926 25.643-14.279 54.8-21.826 84.32-21.826 95.933 0 173.979 78.283 173.979 174.504 0 96.222-78.046 174.505-173.979 174.505S81.988 285.772 81.988 189.549c0-51.62 22.607-100.309 62.026-133.581 3.169-2.675 3.576-7.421.909-10.599a7.482 7.482 0 0 0-10.567-.912c-42.813 36.137-67.368 89.021-67.368 145.092 0 50.486 19.783 96.422 51.978 130.428l-20.761 36.067c-4.975 8.35 8.189 16.07 12.99 7.523l18.873-32.787c22.579 20.271 50.027 35.185 80.345 42.74l-64.719 112.434-16.555-52.261a7.5 7.5 0 0 0-8.755-5.07l-53.401 11.75 26.71-46.403c2.071-3.598.842-8.199-2.745-10.276a7.487 7.487 0 0 0-10.245 2.753l-35.208 61.166c-3.34 5.373 1.964 12.674 8.102 11.11l63.317-13.933 19.629 61.966c1.716 6.096 10.646 7.089 13.643 1.483l75.719-131.547a188.928 188.928 0 0 0 30.059 2.408c10.313 0 20.431-.846 30.3-2.448l45.477 79.007a7.49 7.49 0 0 0 6.502 3.762 7.449 7.449 0 0 0 3.743-1.009c3.587-2.078 4.816-6.678 2.745-10.276l-42.982-74.673c30.305-7.593 57.734-22.54 80.288-42.839l62.909 109.29-53.401-11.75c-3.786-.833-7.581 1.365-8.755 5.07l-16.555 52.261-4.004-6.956a7.488 7.488 0 0 0-10.245-2.753c-3.587 2.078-4.816 6.678-2.745 10.276l12.501 21.719c2.998 5.607 11.927 4.612 13.643-1.483l19.629-61.966 63.317 13.933c6.144 1.558 11.444-5.738 8.106-11.112z" fill="#e84e2d" opacity="1" data-original="#000000" class=""></path></g></svg>