<svg id="Capa_1" enable-background="new 0 0 512.001 512.001" height="512" viewBox="0 0 512.001 512.001" width="512" xmlns="http://www.w3.org/2000/svg"><g><g><g><path d="m458.033 111.834c4.142 0 7.5-3.357 7.5-7.5v-34.205c0-3.287-2.14-6.19-5.279-7.164l-202.033-62.63c-1.446-.447-2.995-.447-4.441 0l-202.033 62.63c-3.139.974-5.279 3.877-5.279 7.164v160.103c0 44.699 11.233 89.11 32.484 128.435 21.251 39.324 52.248 73.055 89.64 97.547l83.299 54.561c1.248.817 2.679 1.226 4.109 1.226s2.861-.408 4.109-1.226l83.299-54.561c37.392-24.492 68.389-58.223 89.64-97.547s32.484-83.735 32.484-128.435v-90.804c0-4.143-3.358-7.5-7.5-7.5s-7.5 3.357-7.5 7.5v90.804c0 86.338-43.119 166.126-115.343 213.433l-71.688 46.956v-30.371l57.768-37.839c65.033-42.597 103.858-114.439 103.858-192.18v-130.324c0-3.287-2.14-6.19-5.279-7.164l-156.347-48.467v-26.599l187.033 57.98v28.678c-.001 4.142 3.357 7.499 7.499 7.499zm-47.906 118.398c0 72.664-36.291 139.816-97.077 179.632l-57.049 37.367-57.049-37.367c-60.786-39.815-97.077-106.968-97.077-179.632v-60.402c0-4.143-3.358-7.5-7.5-7.5s-7.5 3.357-7.5 7.5v60.402c0 77.74 38.825 149.583 103.858 192.181l57.768 37.837v30.371l-71.689-46.957c-72.225-47.306-115.344-127.094-115.344-213.432v-154.575l187.033-57.98v26.599l-156.347 48.467c-3.139.974-5.279 3.877-5.279 7.164v34.86c0 4.143 3.358 7.5 7.5 7.5s7.5-3.357 7.5-7.5v-29.333l154.126-47.778 154.126 47.778z"/><path d="m197.157 223.398c-2.862-2.993-7.609-3.102-10.604-.239l-43.813 41.88c-1.438 1.375-2.271 3.264-2.316 5.253-.045 1.988.702 3.913 2.077 5.352l74.039 77.456c5.257 5.5 12.462 8.562 20.007 8.562.634 0 1.271-.021 1.909-.065 8.228-.563 15.72-4.718 20.554-11.399l131.357-181.551c2.428-3.355 1.676-8.045-1.68-10.473l-49.104-35.529c-1.612-1.166-3.62-1.645-5.584-1.329-1.964.315-3.722 1.397-4.888 3.009l-97.65 134.962zm35.615 55.06c2.221-.151 4.26-1.282 5.564-3.086l98.53-136.18 36.952 26.736-126.96 175.475c-2.217 3.064-5.652 4.97-9.425 5.228-3.774.247-7.437-1.162-10.05-3.896l-68.857-72.035 32.97-31.516 35.343 36.974c1.539 1.609 3.713 2.456 5.933 2.3z"/></g></g></g></svg>