<svg xmlns="http://www.w3.org/2000/svg" version="1.1" xmlns:xlink="http://www.w3.org/1999/xlink" width="512" height="512" x="0" y="0" viewBox="0 0 682.667 682.667" style="enable-background:new 0 0 512 512" xml:space="preserve" class=""><g><defs><clipPath id="b" clipPathUnits="userSpaceOnUse"><path d="M0 512h512V0H0Z" fill="#e84e2d" opacity="1" data-original="#000000"></path></clipPath></defs><mask id="a"><rect width="100%" height="100%" fill="#ffffff" opacity="1" data-original="#ffffff"></rect></mask><g mask="url(#a)"><g clip-path="url(#b)" transform="matrix(1.33333 0 0 -1.33333 0 682.667)"><path d="M0 0c.397 12.263-9.521 22.446-21.724 22.446h-.044v.008l1.813.001c11.846.008 21.44 9.622 21.433 21.465-.01 11.848-9.621 21.38-21.465 21.371h-89.239c-2.487 0-4.248 2.43-3.474 4.793l7.821 23.875c6.657 20.318 5.473 34.155 5.473 57.952 0 13.998-11.348 25.346-25.346 25.346-12.716 0-23.463-9.422-25.128-22.028-1.843-13.948-3.083-38.75-26.142-60.954l-16.274-15.67a48.656 48.656 0 0 0-33.748-13.606h-16.378v-140.69l12.509.004c31.071.02 28.231-30.751 66.872-30.715h131.518c11.831 0 21.422 9.59 21.422 21.422v.001c0 11.831-9.591 21.422-21.422 21.422h3.773c11.643 0 21.583 9.053 21.971 20.689.405 12.166-9.336 22.156-21.41 22.156h5.21C-10.326-20.712-.376-11.647 0 0Z" style="stroke-width:15;stroke-linecap:round;stroke-linejoin:round;stroke-miterlimit:10;stroke-dasharray:none;stroke-opacity:1" transform="translate(376.755 113.918)" fill="none" stroke="#e84e2d" stroke-width="15" stroke-linecap="round" stroke-linejoin="round" stroke-miterlimit="10" stroke-dasharray="none" stroke-opacity="" data-original="#000000" opacity="1"></path><path d="M0 0h-26.278" style="stroke-width:15;stroke-linecap:round;stroke-linejoin:round;stroke-miterlimit:10;stroke-dasharray:none;stroke-opacity:1" transform="translate(347.192 50.352)" fill="none" stroke="#e84e2d" stroke-width="15" stroke-linecap="round" stroke-linejoin="round" stroke-miterlimit="10" stroke-dasharray="none" stroke-opacity="" data-original="#000000" opacity="1"></path><path d="M0 0h-26.839" style="stroke-width:15;stroke-linecap:round;stroke-linejoin:round;stroke-miterlimit:10;stroke-dasharray:none;stroke-opacity:1" transform="translate(347.753 93.197)" fill="none" stroke="#e84e2d" stroke-width="15" stroke-linecap="round" stroke-linejoin="round" stroke-miterlimit="10" stroke-dasharray="none" stroke-opacity="" data-original="#000000" opacity="1"></path><path d="M0 0h-34.073" style="stroke-width:15;stroke-linecap:round;stroke-linejoin:round;stroke-miterlimit:10;stroke-dasharray:none;stroke-opacity:1" transform="translate(354.987 136.364)" fill="none" stroke="#e84e2d" stroke-width="15" stroke-linecap="round" stroke-linejoin="round" stroke-miterlimit="10" stroke-dasharray="none" stroke-opacity="" data-original="#000000" opacity="1"></path><path d="M0 0c2.964 2.89 1.329 7.925-2.769 8.52l-31.645 4.599a4.991 4.991 0 0 0-3.76 2.732l-14.153 28.675c-1.832 3.713-7.126 3.713-8.958 0l-14.152-28.675a4.995 4.995 0 0 0-3.761-2.732l-31.645-4.599c-4.097-.595-5.733-5.63-2.768-8.52l22.898-22.32a4.997 4.997 0 0 0 1.437-4.422l-5.406-31.517c-.7-4.08 3.583-7.192 7.247-5.265l28.305 14.88a4.996 4.996 0 0 0 4.649 0l28.304-14.88c3.664-1.927 7.948 1.185 7.247 5.265l-5.405 31.517a4.994 4.994 0 0 0 1.437 4.422z" style="stroke-width:15;stroke-linecap:round;stroke-linejoin:round;stroke-miterlimit:10;stroke-dasharray:none;stroke-opacity:1" transform="translate(479.456 388.438)" fill="none" stroke="#e84e2d" stroke-width="15" stroke-linecap="round" stroke-linejoin="round" stroke-miterlimit="10" stroke-dasharray="none" stroke-opacity="" data-original="#000000" opacity="1"></path><path d="M0 0c2.965 2.89 1.329 7.925-2.768 8.52l-31.645 4.599a4.993 4.993 0 0 0-3.761 2.732l-14.152 28.675c-1.832 3.713-7.127 3.713-8.959 0l-14.152-28.675a4.995 4.995 0 0 0-3.761-2.732l-31.645-4.599c-4.097-.595-5.733-5.63-2.768-8.52l22.899-22.32a4.996 4.996 0 0 0 1.436-4.422l-5.406-31.517c-.699-4.08 3.584-7.192 7.248-5.265l28.304 14.88a4.996 4.996 0 0 0 4.649 0l28.304-14.88c3.664-1.927 7.948 1.185 7.248 5.265l-5.406 31.517a4.994 4.994 0 0 0 1.437 4.422z" style="stroke-width:15;stroke-linecap:round;stroke-linejoin:round;stroke-miterlimit:10;stroke-dasharray:none;stroke-opacity:1" transform="translate(146.72 388.438)" fill="none" stroke="#e84e2d" stroke-width="15" stroke-linecap="round" stroke-linejoin="round" stroke-miterlimit="10" stroke-dasharray="none" stroke-opacity="" data-original="#000000" opacity="1"></path><path d="M0 0h23.068c6.121 0 11.083 4.962 11.083 11.083v146.561c0 6.121-4.962 11.084-11.083 11.084h-81.136c-6.121 0-11.083-4.963-11.083-11.084V11.083C-69.151 4.962-64.189 0-58.068 0H-35" style="stroke-width:15;stroke-linecap:round;stroke-linejoin:round;stroke-miterlimit:10;stroke-dasharray:none;stroke-opacity:1" transform="translate(100.182 22.831)" fill="none" stroke="#e84e2d" stroke-width="15" stroke-linecap="round" stroke-linejoin="round" stroke-miterlimit="10" stroke-dasharray="none" stroke-opacity="" data-original="#000000" opacity="1"></path><path d="m0 0 26.553 25.883c4.794 4.672 2.148 12.813-4.476 13.776l-51.167 7.435a8.073 8.073 0 0 0-6.081 4.418l-22.884 46.365c-2.962 6.003-11.522 6.003-14.484 0l-22.883-46.365a8.075 8.075 0 0 0-6.081-4.418l-51.167-7.435c-6.625-.963-9.27-9.104-4.476-13.776l37.024-36.091a8.072 8.072 0 0 0 2.323-7.148l-8.74-50.961c-1.132-6.598 5.793-11.629 11.719-8.514l45.765 24.06a8.075 8.075 0 0 0 7.516 0l45.766-24.06c5.925-3.115 12.85 1.916 11.718 8.514L-9.769-35" style="stroke-width:15;stroke-linecap:round;stroke-linejoin:round;stroke-miterlimit:10;stroke-dasharray:none;stroke-opacity:1" transform="translate(321.58 402.105)" fill="none" stroke="#e84e2d" stroke-width="15" stroke-linecap="round" stroke-linejoin="round" stroke-miterlimit="10" stroke-dasharray="none" stroke-opacity="" data-original="#000000" opacity="1"></path></g></g></g></svg>